<?xml version="1.0" encoding="UTF-8"?>
<svg id="Layer_2" data-name="Layer 2" xmlns="http://www.w3.org/2000/svg" viewBox="0 0 164.25 184">
  <defs>
    <style>
      .cls-1 {
        font-family: Helvetica-Bold, Helvetica;
        font-size: 55.78px;
        font-weight: 700;
      }

      .cls-1, .cls-2 {
        fill: #494949;
      }

      .cls-2 {
        stroke-width: 0px;
      }
    </style>
  </defs>
  <g id="Layer_1-2" data-name="Layer 1">
    <g>
      <path class="cls-2" d="m0,162.97c4.26-8.36,8.55-16.71,12.77-25.09,5.61-11.14,11.16-22.3,16.74-33.45.37-.74.8-1.46,1.24-2.24,6.8,6.82,13.48,13.51,20.23,20.26,1.12-.66,1.92-1.1,2.68-1.6,8.75-5.82,17.53-11.61,26.21-17.53,1.64-1.12,2.72-1.24,4.46-.06,9.38,6.41,18.88,12.65,28.46,19.03.86-.71,1.68-1.39,2.73-2.26,1.5,2.93,2.93,5.72,4.35,8.52.11.22.31.54.23.71-2.23,5.29.83,10.08,1.59,15.04,1.24,8.09,3.07,16.1,4.68,24.14.13.65.38,1.28.64,2.11,7.83-3.91,15.52-7.76,23.38-11.69-2.88-5.78-5.72-11.31-8.37-16.93-.45-.95-.4-2.47.03-3.45,1.41-3.16,3.1-6.2,4.89-9.68,5.88,11.74,11.53,23.03,17.32,34.59-.81.45-1.58.91-2.38,1.31-11.92,5.96-23.85,11.91-35.77,17.88-.83.42-1.6.94-2.4,1.42h-1.03c-.19-.16-.36-.38-.57-.49-12.89-6.45-25.77-12.92-38.7-19.29-.74-.37-1.99-.25-2.78.12-4.93,2.35-9.8,4.81-14.67,7.27-8.13,4.11-16.25,8.26-24.37,12.39h-1.03c-.8-.47-1.57-1-2.39-1.41C25.44,176.21,12.72,169.85,0,163.48c0-.17,0-.34,0-.51Zm76.99-45.22c-7.2,4.81-13.95,9.28-20.63,13.85-.57.39-.81,1.44-.98,2.23-1.87,9.12-3.7,18.24-5.53,27.37-.47,2.37-.9,4.75-1.43,7.59,9.51-4.75,18.52-9.24,27.5-13.8.52-.26,1.02-1.15,1.03-1.75.06-11.62.04-23.24.04-35.48Zm10.27,0c0,12.27-.03,23.96.08,35.65,0,.69,1.05,1.62,1.83,2.01,7.53,3.84,15.11,7.6,22.67,11.37,1.18.59,2.37,1.16,3.85,1.88-.09-.83-.1-1.25-.19-1.65-2.24-11.3-4.48-22.6-6.77-33.9-.12-.61-.51-1.34-1-1.68-6.64-4.49-13.31-8.92-20.48-13.7Zm-53.55,1.45c-6.72,13.44-13.23,26.45-19.84,39.66,7.9,3.95,15.59,7.79,23.27,11.63.19-.31.33-.45.36-.6,2.55-12.54,5.09-25.08,7.59-37.63.11-.58-.05-1.45-.43-1.85-3.53-3.69-7.13-7.31-10.94-11.2Z"/>
      <path class="cls-2" d="m133.23,148.6c-.94-1.82-1.78-3.43-2.61-5.05-3.44-6.74-6.94-13.44-10.29-20.22-2.77-5.62-2.28-11.1,1.71-15.94,3.99-4.84,9.3-6.46,15.32-4.71,6.03,1.75,9.47,6.03,10.4,12.21.42,2.84-.08,5.62-1.4,8.2-4.16,8.17-8.33,16.32-12.5,24.48-.14.28-.33.55-.62,1.03Zm8.75-31.97c0-4.79-3.92-8.71-8.71-8.71-4.8,0-8.71,3.91-8.72,8.71,0,4.78,3.92,8.71,8.72,8.71,4.8,0,8.72-3.91,8.72-8.71Z"/>
      <text class="cls-1" transform="translate(32.72 47.96)"><tspan x="0" y="0">med</tspan><tspan x="0" y="38.07">map</tspan></text>
    </g>
  </g>
</svg>