<?xml version="1.0" encoding="UTF-8"?>
<svg id="Layer_2" data-name="Layer 2" xmlns="http://www.w3.org/2000/svg" viewBox="0 0 155.02 148">
  <defs>
    <style>
      .cls-1 {
        fill: none;
        stroke-width: 3px;
      }

      .cls-1, .cls-2, .cls-3, .cls-4, .cls-5 {
        stroke: #000;
        stroke-miterlimit: 10;
      }

      .cls-2 {
        fill: #06c;
      }

      .cls-3 {
        fill: #6cc;
      }

      .cls-4 {
        fill: #39c;
      }

      .cls-5 {
        fill: #3c9;
      }

      .cls-6, .cls-7 {
        stroke-width: 0px;
      }

      .cls-7 {
        fill: #fff;
      }
    </style>
  </defs>
  <g id="Layer_2-2" data-name="Layer 2">
    <path class="cls-2" d="m32.15,146.54q-10.33-13.33-31-40,20.67,26.67,31,40l.09-100.6C21.91,32.77,11.57,19.61,1.24,6.44c-.05,33.43-.1,66.87-.14,100.3"/>
    <path class="cls-5" d="m106.45,107.33h19.79l27-21.19v-40.36L126.24,6.44h-19.79v100.89Z"/>
    <path class="cls-4" d="m31.92,146.54q10.33-13.33,31-40-20.67,26.67-31,40c-.03-33.53-.06-67.07-.09-100.6,10.33-13.17,20.67-26.33,31-39.5.05,33.43.1,66.87.14,100.3"/>
    <path class="cls-3" d="m106.1,106.94V6.64c-14.38-.07-28.76-.13-43.14-.2v100.3c14.38.07,28.76.13,43.14.2Z"/>
    <g>
      <path class="cls-6" d="m67.96,116.22h8.86c1.71,7.41,3.42,14.8,5.13,22.19l.23.03c.4-1.71.81-3.42,1.21-5.14,1.23-5.34,2.48-10.68,3.66-16.03.19-.85.47-1.17,1.37-1.14,2.52.07,5.05.02,7.64.02v29.21h-5.65v-22.89l-.21-.04c-.6,2.63-1.21,5.26-1.8,7.9-1.03,4.58-2.1,9.15-3.06,13.74-.24,1.13-.71,1.47-1.83,1.39-1.48-.11-2.98-.03-4.5-.03-1.73-7.68-3.43-15.24-5.13-22.8-.07,0-.15.01-.22.02v22.69h-5.7v-29.13Z"/>
      <path class="cls-6" d="m127.45,145.44c-2.19,0-4.17.03-6.15-.03-.27,0-.66-.44-.77-.75-.49-1.37-.95-2.75-1.32-4.15-.21-.77-.54-1.08-1.37-1.07-2.91.05-5.82.04-8.73,0-.69,0-1.05.21-1.26.88-.45,1.47-.95,2.92-1.47,4.36-.11.29-.43.71-.67.72-1.93.06-3.87.03-6.01.03.6-1.68,1.12-3.15,1.64-4.63,2.78-7.82,5.58-15.63,8.33-23.46.33-.95.77-1.28,1.77-1.22,1.57.1,3.16.05,4.74.01.62-.01.97.14,1.19.78,3.32,9.43,6.66,18.85,10.08,28.52Zm-10.31-11.14c-1.19-3.73-2.34-7.34-3.6-11.29-1.31,4-2.49,7.61-3.69,11.29h7.29Z"/>
      <path class="cls-6" d="m131.32,116.15c1.58,0,3.11-.02,4.64,0,3.41.05,6.83-.1,10.22.22,4.55.42,7.22,3.52,7.4,8.08.04,1.12.05,2.26-.11,3.36-.63,4.33-3.35,6.71-8.04,7-2.16.14-4.32.1-6.48.13-.49,0-.98,0-1.61,0v10.4h-6v-29.2Zm6.05,13.8c2.52-.12,4.93-.07,7.29-.4,1.97-.27,2.9-1.89,2.85-4.21-.04-2.19-.98-3.67-2.95-3.86-2.37-.23-4.77-.05-7.2-.05v8.52Z"/>
      <path class="cls-7" d="m117.13,134.3h-7.29c1.2-3.68,2.38-7.29,3.69-11.29,1.26,3.95,2.41,7.57,3.6,11.29Z"/>
      <path class="cls-7" d="m137.37,129.95v-8.52c2.43,0,4.84-.17,7.2.05,1.97.19,2.9,1.67,2.95,3.86.05,2.32-.88,3.94-2.85,4.21-2.36.33-4.78.28-7.29.4Z"/>
    </g>
    <path class="cls-1" d="m64.1,106.83c-.2-34.16-.4-68.32-.6-102.49-10.33,13.17-20.67,26.33-31,39.5C22.17,30.67,11.83,17.51,1.5,4.34v100.5"/>
    <g>
      <line class="cls-1" x1="106.6" y1="4.83" x2="63.6" y2="4.83"/>
      <g>
        <line class="cls-1" x1="64.1" y1="43.83" x2="91.1" y2="43.83"/>
        <line class="cls-1" x1="64.1" y1="4.83" x2="64.1" y2="104.83"/>
      </g>
      <path class="cls-1" d="m106.6,106.33h-43"/>
    </g>
    <path class="cls-1" d="m106.73,106.09h19.79l27-21.19v-40.36L126.52,5.2h-19.79v100.89Z"/>
    <path class="cls-6" d="m130.83,79.93c-.94-1.82-1.78-3.43-2.61-5.05-3.44-6.74-6.94-13.44-10.29-20.22-2.77-5.62-2.28-11.1,1.71-15.94,3.99-4.84,9.3-6.46,15.32-4.71,6.03,1.75,9.47,6.03,10.4,12.21.42,2.84-.08,5.62-1.4,8.2-4.16,8.17-8.33,16.32-12.5,24.48-.14.28-.33.55-.62,1.03Zm8.75-31.97c0-4.79-3.92-8.71-8.71-8.71-4.8,0-8.71,3.91-8.72,8.71,0,4.78,3.92,8.71,8.72,8.71,4.8,0,8.72-3.91,8.72-8.71Z"/>
  </g>
</svg>