<?xml version="1.0" encoding="UTF-8"?>
<svg id="Layer_2" data-name="Layer 2" xmlns="http://www.w3.org/2000/svg" xmlns:xlink="http://www.w3.org/1999/xlink" viewBox="0 0 164.25 150">
  <defs>
    <style>
      .cls-1 {
        fill: url(#linear-gradient);
      }

      .cls-1, .cls-2, .cls-3 {
        stroke-width: 0px;
      }

      .cls-4 {
        font-family: Helvetica-Bold, Helvetica;
        font-size: 55.78px;
        font-weight: 700;
      }

      .cls-4, .cls-2 {
        fill: #494949;
      }

      .cls-3 {
        fill: #000087;
      }
    </style>
    <linearGradient id="linear-gradient" x1="131.76" y1="62.15" x2="147.74" y2="89.82" gradientUnits="userSpaceOnUse">
      <stop offset="0" stop-color="#494949"/>
      <stop offset=".24" stop-color="#45454c"/>
      <stop offset=".47" stop-color="#393956"/>
      <stop offset=".7" stop-color="#252567"/>
      <stop offset=".93" stop-color="#0a0a7e"/>
      <stop offset="1" stop-color="#000087"/>
    </linearGradient>
  </defs>
  <g id="Layer_3" data-name="Layer 3">
    <g>
      <path class="cls-3" d="m146.93,94.8c-1.79,3.48-3.48,6.52-4.89,9.68-.44.98-.48,2.49-.03,3.45,2.64,5.62,5.48,11.15,8.37,16.93-7.87,3.93-15.56,7.78-23.38,11.69-.25-.83-.51-1.46-.64-2.11-1.6-8.04-3.44-16.04-4.68-24.14-.76-4.96-3.83-9.74-1.59-15.04.07-.17-.12-.49-.23-.71-.28-.54-.56-1.09-.83-1.63h-.76l-1.7-1.14c-2.77,1.4-5.8,2.09-9.07,2.09-2.43,0-4.68-.39-6.75-1.13,2.35,1.57,4.68,3.14,7,4.71.49.33.88,1.07,1,1.68,2.29,11.29,4.52,22.59,6.77,33.9.08.4.09.82.19,1.65-1.48-.72-2.67-1.29-3.85-1.88-7.57-3.78-15.14-7.53-22.67-11.37-.78-.4-1.82-1.32-1.83-2.01-.08-8.75-.09-17.49-.08-26.48h-3.72l-5.04-5.04-1.51,1.51c0,10.19,0,20.02-.05,29.83,0,.6-.51,1.49-1.03,1.75-8.97,4.56-17.99,9.05-27.5,13.8.53-2.84.96-5.22,1.43-7.59,1.83-9.13,3.66-18.25,5.53-27.37.16-.79.4-1.84.98-2.23,2.65-1.81,5.31-3.61,8-5.41l-4.32-4.32-5.06,5.06h-8.41l-7.5-7.5v-8.89c-2.77-2.77-5.53-5.54-8.33-8.34-.43.78-.86,1.49-1.24,2.24-5.58,11.15-11.13,22.31-16.74,33.45-4.22,8.38-8.51,16.72-12.77,25.09v.51c12.72,6.36,25.44,12.73,38.16,19.1.83.41,1.6.94,2.39,1.41h1.03c8.12-4.13,16.24-8.27,24.37-12.39,4.87-2.46,9.74-4.92,14.67-7.27.78-.37,2.04-.49,2.78-.12,12.93,6.37,25.81,12.84,38.7,19.29.22.11.38.32.57.49h1.03c.8-.48,1.57-1,2.4-1.42,11.92-5.97,23.84-11.92,35.77-17.88.8-.4,1.57-.86,2.38-1.31-5.79-11.56-11.44-22.84-17.32-34.59Zm-101.85,3.45c-2.49,12.55-5.04,25.09-7.59,37.63-.03.16-.17.29-.36.6-7.68-3.84-15.37-7.68-23.27-11.63,6.61-13.21,13.12-26.22,19.84-39.66,3.82,3.88,7.42,7.5,10.94,11.2.38.4.55,1.27.43,1.85Z"/>
      <path class="cls-2" d="m157.96,6.33c.04,2.04.07,3.86.1,5.68.1,7.56.27,15.13.26,22.69,0,6.27-2.88,10.96-8.6,13.53-5.72,2.57-11.2,1.67-15.82-2.57-4.63-4.25-5.82-9.6-3.91-15.56.88-2.73,2.57-5,4.89-6.73.67-.5,1.16-.87,1.72-1.28,1.52-1.12,3.01-2.19,5.92-4.29.16-.12.18-.13.22-.16,2.25.35,6.25,2.35,6.25,2.35v-7c.06-.05.08-.07.3-.23,3.52-2.58,4.57-3.78,7.65-5.79.2-.13.56-.36,1.01-.64Zm-22.02,24.78c-2.13,4.3-.35,9.54,3.95,11.67,4.3,2.13,9.54.36,11.68-3.94,2.13-4.28.35-9.55-3.95-11.67-4.3-2.13-9.55-.36-11.67,3.94Z"/>
      <text class="cls-4" transform="translate(45.72 47.96)"><tspan x="0" y="0">me</tspan><tspan x="0" y="38.07">ma</tspan></text>
      <path class="cls-1" d="m129.78,100.19c-.01-2.04-.03-3.86-.03-5.68,0-7.56-.08-15.13.01-22.69.08-6.27,3.01-10.92,8.76-13.42,5.75-2.5,11.22-1.53,15.79,2.76,4.58,4.3,5.7,9.67,3.72,15.6-.91,2.72-2.63,4.97-4.97,6.67-.68.49-1.17.85-1.73,1.26-1.54,1.1-3.04,2.16-5.97,4.22-.16.11-.18.13-.22.16-2.25-.37-6.22-2.42-6.22-2.42l-.09,7c-.06.05-.08.07-.3.23-3.55,2.54-4.61,3.73-7.72,5.7-.2.13-.56.36-1.02.63Zm22.32-24.51c2.18-4.27.47-9.54-3.81-11.72-4.27-2.18-9.54-.47-11.72,3.79-2.18,4.26-.46,9.54,3.81,11.72,4.27,2.18,9.54.47,11.72-3.8Z"/>
    </g>
  </g>
</svg>